# xmcd
#
# Track frame offsets: 
#        150
#        17906
#        31740
#        50318
#        67008
#        83273
#        103481
#        119265
#        138365
#        149817
#        172574
#        192169
#
# Disc length: 2723 seconds
#
# Revision: 0
# Processed by: cddbd v1.5.2PL0 Copyright (c) Steve Scherf et al.
# Submitted via: ExactAudioCopy v0.95b3
#
DISCID=9e0aa10c
DTITLE=Eddie Boyd  - The Sonet Blues Story (1977)(2005 Universal Rem.)
DTITLE=FLAC
DYEAR=1900
DGENRE=
TTITLE0=Lovesick Soul
TTITLE1=I'm a Fool
TTITLE2=Kindness for Weakness
TTITLE3=Tell the Truth
TTITLE4=The Cannonball
TTITLE5=Black, Brown and White
TTITLE6=It's a Mellow Day
TTITLE7=Do Yourself a Favor
TTITLE8=Dedication to My Baby
TTITLE9=Zip Code
TTITLE10=Do Yourself a Favor (Alt. Take)
TTITLE11=Dedication to My Baby (Alt. Take)
EXTD=
EXTT0=
EXTT1=
EXTT2=
EXTT3=
EXTT4=
EXTT5=
EXTT6=
EXTT7=
EXTT8=
EXTT9=
EXTT10=
EXTT11=
PLAYORDER=
